<?xml version="1.0" standalone="no"?>
<!DOCTYPE svg PUBLIC "-//W3C//DTD SVG 20010904//EN"
 "http://www.w3.org/TR/2001/REC-SVG-20010904/DTD/svg10.dtd">
<svg version="1.0" xmlns="http://www.w3.org/2000/svg"
 width="1200.000000pt" height="1200.000000pt" viewBox="0 0 1200.000000 1200.000000"
 preserveAspectRatio="xMidYMid meet">

<g transform="translate(0.000000,1200.000000) scale(0.100000,-0.100000)"
fill="#000000" stroke="none">
<path d="M4406 11463 c-3 -16 -37 -210 -76 -433 -39 -223 -72 -414 -75 -425
-3 -15 -31 -31 -102 -59 -54 -21 -174 -75 -268 -121 -991 -477 -1783 -1262
-2270 -2250 -255 -517 -384 -948 -485 -1620 -35 -230 -38 -787 -6 -1065 9 -74
17 -147 18 -161 3 -28 25 -6 -447 -443 -71 -66 -156 -144 -188 -174 l-58 -54
154 -266 c85 -147 374 -647 642 -1112 268 -465 558 -966 643 -1115 85 -148
160 -277 166 -286 10 -15 59 1 441 141 l429 157 121 -92 c616 -470 1367 -795
2150 -930 302 -52 414 -60 825 -60 412 0 511 7 826 61 471 79 978 245 1394
455 253 127 481 268 708 436 l113 84 224 -71 c124 -38 327 -102 451 -141 125
-39 230 -67 234 -62 4 4 160 271 345 593 186 322 481 833 655 1135 685 1186
614 1056 593 1075 -10 9 -168 142 -350 295 -183 152 -333 280 -333 284 0 3 9
74 20 156 83 636 26 1331 -164 1987 -341 1178 -1131 2198 -2196 2838 -137 82
-413 224 -567 291 -68 29 -125 60 -128 69 -2 8 -47 209 -100 445 -53 237 -99
438 -101 448 -5 16 -91 17 -1619 17 l-1613 0 -6 -27z m2973 -270 c5 -21 49
-207 96 -413 48 -206 90 -386 94 -399 5 -19 34 -34 156 -82 934 -369 1739
-1052 2257 -1916 340 -565 547 -1172 634 -1853 10 -82 17 -245 21 -470 6 -372
-4 -522 -51 -813 l-23 -138 71 -63 c39 -34 187 -158 329 -276 141 -118 257
-218 257 -223 0 -5 -163 -291 -362 -635 -199 -345 -429 -744 -511 -887 -83
-143 -222 -384 -309 -535 -87 -151 -164 -274 -171 -274 -10 1 -387 114 -612
184 -33 10 -99 30 -148 45 l-87 26 -111 -88 c-164 -130 -262 -198 -451 -313
-611 -370 -1204 -576 -1908 -666 -198 -25 -732 -30 -950 -9 -773 73 -1508 333
-2143 756 -128 86 -433 315 -456 343 -7 9 -20 16 -27 16 -8 0 -194 -66 -414
-146 -220 -81 -402 -145 -404 -143 -1 2 -72 126 -158 274 -212 368 -748 1296
-987 1709 -108 187 -197 342 -199 346 -2 5 315 307 597 567 l55 50 -17 99
c-43 263 -49 374 -44 764 5 392 13 486 62 770 132 757 468 1499 952 2098 349
433 754 784 1238 1077 206 125 706 357 839 391 27 6 30 21 91 379 32 187 74
421 81 458 l6 27 1348 0 1349 0 10 -37z"/>
<path d="M5820 9501 l0 -258 -87 -7 c-743 -57 -1504 -417 -2033 -962 -955
-984 -1197 -2411 -621 -3658 23 -49 40 -93 39 -97 -2 -5 -113 -72 -248 -150
-135 -78 -246 -142 -248 -144 -2 -1 182 -328 194 -344 2 -1 118 63 259 144
141 81 257 146 259 144 1 -2 34 -47 73 -100 892 -1214 2513 -1649 3908 -1050
520 224 1006 616 1343 1083 59 81 65 87 85 77 12 -7 127 -73 255 -147 128 -74
234 -133 236 -131 12 14 197 342 194 344 -2 2 -113 66 -247 144 -135 78 -247
143 -249 146 -3 3 15 51 41 107 199 446 297 893 297 1358 0 1192 -651 2283
-1705 2858 -375 205 -859 350 -1262 379 l-83 6 0 258 0 259 -200 0 -200 0 0
-259z m0 -1433 l0 -583 -225 2 c-124 1 -225 -2 -225 -7 0 -5 131 -262 290
-572 160 -310 307 -596 328 -635 20 -40 39 -73 42 -73 6 0 654 1254 658 1275
3 12 -34 14 -232 12 l-236 -2 0 583 0 583 33 -5 c17 -3 59 -8 92 -11 212 -22
545 -115 765 -214 592 -268 1072 -751 1335 -1341 152 -343 225 -691 225 -1080
0 -303 -38 -553 -125 -818 -41 -123 -119 -316 -135 -335 -4 -5 -219 113 -478
263 l-470 271 114 197 113 197 -47 3 c-128 8 -1397 69 -1400 67 -5 -4 772
-1214 780 -1215 3 0 54 82 112 183 58 100 111 190 119 201 13 17 30 9 303
-149 159 -92 369 -213 466 -268 116 -67 176 -107 173 -115 -14 -39 -176 -233
-290 -348 -190 -191 -366 -325 -600 -457 -293 -164 -669 -282 -1013 -318 -173
-18 -546 -7 -702 21 -381 67 -729 204 -1030 404 -182 122 -270 195 -425 350
-112 113 -294 332 -284 340 17 13 931 536 937 536 4 -1 57 -89 118 -196 l111
-195 234 363 c128 200 257 400 286 445 239 368 263 408 245 412 -31 6 -1422
-63 -1422 -71 0 -8 184 -334 217 -384 13 -21 7 -25 -164 -124 -98 -57 -310
-179 -471 -272 -162 -94 -297 -166 -302 -162 -18 21 -95 208 -140 344 -53 156
-102 382 -119 542 -14 125 -14 451 0 576 44 411 200 840 429 1182 141 210 351
442 530 587 421 339 900 532 1468 592 9 1 12 -121 12 -581z"/>
</g>
</svg>
